<svg width="253" height="228" viewBox="0 0 253 228" fill="none" xmlns="http://www.w3.org/2000/svg">
<g style="mix-blend-mode:multiply">
<path d="M0 50.4718L50.4798 25.2359L100.953 50.4718L50.4798 75.7143L0 50.4718Z" fill="#2D2D2D"/>
<path d="M50.479 75.7143V227.13L100.952 201.894V50.4718L50.479 75.7143Z" fill="white"/>
<path d="M50.4798 75.7143L0 50.4718V201.894L50.4798 227.13V75.7143Z" fill="#2D2D2D"/>
<path d="M151.458 25.2359L201.931 0L252.41 25.2359L201.931 50.4718L151.458 25.2359Z" fill="#2D2D2D"/>
<path d="M201.934 50.4718V201.894L252.413 176.658V25.2359L201.934 50.4718Z" fill="white"/>
<path d="M201.931 50.4718L151.458 25.2359V176.658L201.931 201.894V50.4718Z" fill="#2D2D2D"/>
<path d="M100.967 100.95L201.92 151.422L201.952 201.894L100.967 151.422V100.95Z" fill="#2D2D2D"/>
</g>
</svg>
